<?xml version="1.0" encoding="UTF-8"?>
<svg xmlns="http://www.w3.org/2000/svg" viewBox="0 0 408.991 88.742">
  <defs>
    <style>.a{fill:#396181;}.b{fill:#8bb63a;}</style>
  </defs>
  <g transform="translate(-276.347 -235.352)">
    <path class="a" d="M467.76,312.327h6.751c6.109,0,10.1-3.682,10.1-9.931s-3.991-9.875-10.1-9.875H467.76Zm3.6-3.1v-13.61h2.956c3.961,0,6.583,2.371,6.583,6.779,0,4.463-2.566,6.835-6.583,6.835Zm15.453-4.013a7.291,7.291,0,0,0,7.122,7.455c.175,0,.35,0,.525-.007a8.893,8.893,0,0,0,5.719-2.036l-1.371-2.539a7.033,7.033,0,0,1-4.1,1.562,4.048,4.048,0,0,1-4.268-3.766h9.82s.084-.948.084-1.367c0-3.766-2.2-6.751-6.3-6.751-4.24,0-7.225,3.069-7.225,7.448m3.738-1.757a3.313,3.313,0,0,1,3.4-2.957,2.745,2.745,0,0,1,2.825,2.664,2.609,2.609,0,0,1-.007.293Zm12.715,8.871h3.543v-6.248a7.46,7.46,0,0,1,.167-1.813c.446-1.814,1.646-3.265,3.487-3.265,1.674,0,1.925,1.311,1.925,2.845v8.48h3.543v-6.247a7.74,7.74,0,0,1,.167-1.841c.418-1.786,1.618-3.237,3.431-3.237,1.646,0,1.953,1.227,1.953,2.845v8.48h3.543v-9.15c0-3.738-1.7-5.412-4.659-5.412a5.563,5.563,0,0,0-4.854,2.929h-.058a3.927,3.927,0,0,0-4.157-2.929,5.379,5.379,0,0,0-4.631,2.957h-.056a8.6,8.6,0,0,0,.056-.976V298.1h-3.4Zm25.469,0h3.543v-6.248a7.463,7.463,0,0,1,.167-1.813c.446-1.814,1.646-3.265,3.487-3.265,1.674,0,1.925,1.311,1.925,2.845v8.48h3.543v-6.247a7.74,7.74,0,0,1,.167-1.841c.419-1.786,1.618-3.237,3.431-3.237,1.646,0,1.956,1.228,1.956,2.846v8.48h3.54v-9.15c0-3.738-1.7-5.412-4.659-5.412a5.563,5.563,0,0,0-4.854,2.929h-.056a3.927,3.927,0,0,0-4.157-2.929,5.379,5.379,0,0,0-4.631,2.957h-.056a8.593,8.593,0,0,0,.056-.976V298.1h-3.4Zm25.468-16.654h3.515v-3.152h-3.515Zm0,16.654h3.543V298.1h-3.543Zm7.448,0H565.2V305.8a6.017,6.017,0,0,1,.251-1.9,3.927,3.927,0,0,1,3.822-2.9c1.813,0,2.26,1.172,2.26,2.9v8.426h3.515v-9.15c0-3.766-1.785-5.412-4.938-5.412a5.517,5.517,0,0,0-5.05,2.957H565a8.607,8.607,0,0,0,.056-.976V298.1h-3.4Z"></path>
    <path class="b" d="M468.094,282.881h1.925v-9.373h3.32l5.607,9.373h2.26l-6.25-10.294v-.056l5.858-9.262h-2.2l-5.276,8.509h-3.319V263.27h-1.925Zm16.208,0h1.9v-5.914a9.3,9.3,0,0,1,.392-2.734c.614-2.064,2.092-3.626,4.073-3.626a4.679,4.679,0,0,1,.7.056v-1.87a3.8,3.8,0,0,0-.753-.084c-2.2,0-3.766,1.618-4.435,3.738h-.056s.056-.5.056-1.116v-2.482H484.3Zm8.787-7a7.093,7.093,0,0,0,6.839,7.337q.249.009.5,0a8.04,8.04,0,0,0,5.188-1.955l-.865-1.451a6.527,6.527,0,0,1-4.268,1.7,5.284,5.284,0,0,1-5.443-5.12c0-.143,0-.286,0-.429H505.81s.056-.642.056-.976c0-3.487-1.981-6.472-5.858-6.472-3.794,0-6.918,2.762-6.918,7.365m2.036-1.478a4.757,4.757,0,0,1,4.826-4.3c2.092,0,3.878,1.367,3.989,4.3Zm14.311-8.759h1.981v-2.371h-1.982Zm.057,17.238h1.9V268.849h-1.9Zm5.328-1.7a7.15,7.15,0,0,0,5.189,2.036c2.818,0,4.8-1.646,4.8-3.933,0-4.631-7.56-3.794-7.56-6.89,0-1.562,1.367-2.176,2.79-2.176a4.974,4.974,0,0,1,3.515,1.283l.865-1.451a5.892,5.892,0,0,0-4.327-1.536c-2.539,0-4.8,1.367-4.8,3.878,0,4.575,7.56,3.822,7.56,6.89,0,1.478-1.311,2.232-2.818,2.232a6.026,6.026,0,0,1-4.184-1.7Zm13.5,1.7h1.9v-7.03h2.26l4.687,7.03h2.26l-5.362-7.867v-.056l4.882-6.109h-2.288l-4.212,5.356h-2.232V263.27h-1.9Zm14,0h1.9v-5.914a9.268,9.268,0,0,1,.391-2.734c.614-2.064,2.092-3.626,4.073-3.626a4.678,4.678,0,0,1,.7.056v-1.87a3.8,3.8,0,0,0-.753-.084c-2.2,0-3.766,1.618-4.435,3.738h-.056s.056-.5.056-1.116v-2.482h-1.874Zm8.787-3.822c0,2.79,2.427,4.157,4.77,4.157a5.067,5.067,0,0,0,4.687-3.041h.056a11.187,11.187,0,0,0-.056,1.172v1.534h1.813V273.9c0-3.515-1.869-5.384-5.244-5.384a8.056,8.056,0,0,0-4.993,1.59l.893,1.451a6.835,6.835,0,0,1,3.959-1.339c2.009,0,3.487.921,3.487,3.626v.363H559.7c-2.427,0-8.592.112-8.592,4.854m1.953-.112c0-3.1,4.408-3.18,6.611-3.18h.809v.614c0,2.427-1.618,5.217-4.3,5.217-2.092,0-3.124-1.339-3.124-2.65m13.7,3.933h1.9v-6.723a6.993,6.993,0,0,1,.223-1.9,5.332,5.332,0,0,1,5.1-3.961c2.706,0,3.041,1.953,3.041,4.157v8.427h1.9v-8.927c0-3.459-1.227-5.44-4.687-5.44a5.972,5.972,0,0,0-5.607,3.543h-.056s.056-.5.056-1.116v-2.092h-1.871Zm16.542,0h1.9v-7.03h2.26l4.687,7.03h2.26l-5.356-7.867v-.056l4.882-6.109h-2.288l-4.212,5.356H585.2V263.27h-1.9Zm12.8-7a7.093,7.093,0,0,0,6.839,7.337q.249.009.5,0a8.046,8.046,0,0,0,5.189-1.953l-.865-1.451a6.527,6.527,0,0,1-4.268,1.7,5.284,5.284,0,0,1-5.444-5.119c0-.144,0-.288,0-.432H608.82s.056-.642.056-.976c0-3.487-1.981-6.472-5.858-6.472-3.794,0-6.918,2.762-6.918,7.365m2.036-1.478a4.757,4.757,0,0,1,4.826-4.3c2.092,0,3.878,1.367,3.989,4.3Zm14.367,8.48h1.9v-6.724a7,7,0,0,1,.223-1.9,5.333,5.333,0,0,1,5.1-3.961c2.706,0,3.041,1.953,3.041,4.157v8.427h1.9v-8.927c0-3.459-1.227-5.44-4.687-5.44a5.972,5.972,0,0,0-5.607,3.543h-.056s.056-.5.056-1.116v-2.092H612.5Zm16.542,0h1.9v-6.724a6.547,6.547,0,0,1,.223-1.869,5.327,5.327,0,0,1,5.1-3.989c2.706,0,3.041,1.953,3.041,4.157v8.424h1.9v-8.927c0-3.459-1.227-5.44-4.687-5.44A6.008,6.008,0,0,0,630.948,272h-.054a11.427,11.427,0,0,0,.056-1.144v-7.588h-1.9Zm15.4-3.822c0,2.79,2.427,4.157,4.77,4.157a5.067,5.067,0,0,0,4.687-3.041h.056a11.187,11.187,0,0,0-.056,1.172v1.533h1.813V273.9c0-3.515-1.869-5.384-5.244-5.384a8.056,8.056,0,0,0-4.993,1.59l.893,1.451a6.826,6.826,0,0,1,3.961-1.339c2.009,0,3.487.921,3.487,3.626v.363h-.781c-2.427,0-8.592.112-8.592,4.854m1.953-.112c0-3.1,4.408-3.18,6.611-3.18h.809v.614c0,2.427-1.618,5.217-4.3,5.217-2.092,0-3.124-1.339-3.124-2.65m13.5-1.172c0,3.654,1.395,5.44,4.687,5.44a6,6,0,0,0,5.5-3.543h.056s-.056.5-.056,1.116v2.092h1.841V268.849h-1.9v6.723c0,3.041-1.981,5.858-5.189,5.858-2.706,0-3.041-1.953-3.041-4.157v-8.424h-1.9Zm15.454,3.4a7.15,7.15,0,0,0,5.189,2.036c2.818,0,4.8-1.646,4.8-3.933,0-4.631-7.56-3.794-7.56-6.89,0-1.562,1.367-2.176,2.79-2.176a4.973,4.973,0,0,1,3.526,1.286l.865-1.451a5.9,5.9,0,0,0-4.324-1.534c-2.539,0-4.8,1.367-4.8,3.878,0,4.575,7.56,3.822,7.56,6.89,0,1.478-1.311,2.232-2.818,2.232a6.026,6.026,0,0,1-4.184-1.7Z"></path>
    <path class="b" d="M377.681,306.574H375.4l-.045-13.716a5.233,5.233,0,0,0-5.077.158l.032,13.488-4.566.011-.038-15.893.931-.687a9.9,9.9,0,0,1,12.508,0l.767.679.054,15.889Z"></path>
    <path class="b" d="M434.628,271.393l-15.781-17.475-9.616,9.7H380.809l.446-6.055-8.426-22.211-8.449,22.384.468,5.886H336.437l-9.616-9.7L311.039,271.4v29.049h4.57v-27.3l11.371-12.6,7.344,7.41,4.757,5.606v28.121h4.566l0-29.8-3.151-3.715h29.3l-.778-9.8,3.825-10.136,3.785,9.984-.733,9.948h29.238l-3.151,3.718v34.683h4.566V273.568l4.572-5.394h.02l7.557-7.626,11.372,12.6.017,34.611h4.567Z"></path>
    <path class="a" d="M309.754,324.094l-.951-1.132a60.417,60.417,0,0,0-25.372-16.3l-7.084-2.272,7.231-1.748c33.549-8.109,65.736-3.8,88.995,2.26a236.192,236.192,0,0,1,38.4-.854c25.257,1.55,40.463,6.707,41.1,6.926l-1.363,3.954c-.4-.138-26.645-8.876-66.653-6.7a172.843,172.843,0,0,1,24.167,9.506l-1.928,3.707c-.274-.139-13.456-6.863-33.938-12.287a248.6,248.6,0,0,0-61.221,14.422ZM291.3,305.24a64.733,64.733,0,0,1,19.71,13.93A255.863,255.863,0,0,1,360.7,306.414c-19.665-4.042-43.973-6.09-69.394-1.174"></path>
  </g>
</svg>
